<?xml version="1.0" encoding="UTF-8"?>
<svg xmlns="http://www.w3.org/2000/svg" width="1280" height="720" viewBox="0 0 1280 720" font-family="-apple-system,'Segoe UI',sans-serif">
<rect width="1280" height="720" fill="#ffffff"/>
<text x="16" y="26" font-size="15" font-weight="600" fill="#111">10s TTFT SLO 达成率（%）</text>
<line x1="16" y1="46" x2="42" y2="46" stroke="#0072B2" stroke-width="2"/>
<circle cx="29" cy="46" r="3.4" fill="#0072B2"/>
<text x="48" y="50" font-size="12" fill="#111">2×DP4TP2+EP8 实例+router（token）</text>
<line x1="270.8" y1="46" x2="296.8" y2="46" stroke="#E69F00" stroke-width="2"/>
<circle cx="283.8" cy="46" r="3.4" fill="#E69F00"/>
<text x="302.8" y="50" font-size="12" fill="#111">DP6TP4 双机 token</text>
<line x1="424.8" y1="46" x2="450.8" y2="46" stroke="#E69F00" stroke-width="2" stroke-dasharray="7 5"/>
<circle cx="437.8" cy="46" r="3.4" fill="#E69F00"/>
<text x="456.8" y="50" font-size="12" fill="#111">DP6TP4 双机 request</text>
<line x1="593.2" y1="46" x2="619.2" y2="46" stroke="#009E73" stroke-width="2"/>
<circle cx="606.2" cy="46" r="3.4" fill="#009E73"/>
<text x="625.2" y="50" font-size="12" fill="#111">baseline2x mbt=8192</text>
<line x1="776.0" y1="46" x2="802.0" y2="46" stroke="#009E73" stroke-width="2" stroke-dasharray="7 5"/>
<circle cx="789.0" cy="46" r="3.4" fill="#009E73"/>
<text x="808.0" y="50" font-size="12" fill="#111">baseline2x mbt=32768</text>
<line x1="84" y1="654.0" x2="1252" y2="654.0" stroke="#eee"/>
<text x="76" y="658.0" font-size="11" fill="#555" text-anchor="end">0</text>
<line x1="84" y1="544.0" x2="1252" y2="544.0" stroke="#eee"/>
<text x="76" y="548.0" font-size="11" fill="#555" text-anchor="end">20</text>
<line x1="84" y1="434.0" x2="1252" y2="434.0" stroke="#eee"/>
<text x="76" y="438.0" font-size="11" fill="#555" text-anchor="end">40</text>
<line x1="84" y1="324.0" x2="1252" y2="324.0" stroke="#eee"/>
<text x="76" y="328.0" font-size="11" fill="#555" text-anchor="end">60</text>
<line x1="84" y1="214.0" x2="1252" y2="214.0" stroke="#eee"/>
<text x="76" y="218.0" font-size="11" fill="#555" text-anchor="end">80</text>
<line x1="84" y1="104.0" x2="1252" y2="104.0" stroke="#eee"/>
<text x="76" y="108.0" font-size="11" fill="#555" text-anchor="end">100</text>
<line x1="84" y1="104" x2="84" y2="654" stroke="#999"/>
<line x1="84" y1="654" x2="1252" y2="654" stroke="#999"/>
<line x1="84.0" y1="654" x2="84.0" y2="659" stroke="#999"/>
<text x="84.0" y="674" font-size="11" fill="#333" text-anchor="middle">1x<tspan x="84.0" dy="13">35.1K</tspan></text>
<line x1="668.0" y1="654" x2="668.0" y2="659" stroke="#999"/>
<text x="668.0" y="674" font-size="11" fill="#333" text-anchor="middle">1.5x<tspan x="668.0" dy="13">52.6K</tspan></text>
<line x1="1252.0" y1="654" x2="1252.0" y2="659" stroke="#999"/>
<text x="1252.0" y="674" font-size="11" fill="#333" text-anchor="middle">2x<tspan x="1252.0" dy="13">70.1K</tspan></text>
<text x="668" y="712" font-size="11" fill="#555" text-anchor="middle">供给速率（tok/s）</text>
<text x="14" y="379" font-size="11" fill="#555" text-anchor="middle" transform="rotate(-90 14 379)">%</text>
<polyline points="84.0,106.1 668.0,111.5 1252.0,148.0" fill="none" stroke="#0072B2" stroke-width="2"/>
<circle cx="84.0" cy="106.1" r="3.6" fill="#0072B2"/>
<circle cx="668.0" cy="111.5" r="3.6" fill="#0072B2"/>
<circle cx="1252.0" cy="148.0" r="3.6" fill="#0072B2"/>
<polyline points="84.0,106.1 668.0,112.6 1252.0,174.9" fill="none" stroke="#E69F00" stroke-width="2"/>
<circle cx="84.0" cy="106.1" r="3.6" fill="#E69F00"/>
<circle cx="668.0" cy="112.6" r="3.6" fill="#E69F00"/>
<circle cx="1252.0" cy="174.9" r="3.6" fill="#E69F00"/>
<polyline points="84.0,105.1 668.0,129.8 1252.0,202.8" fill="none" stroke="#E69F00" stroke-width="2" stroke-dasharray="7 5"/>
<circle cx="84.0" cy="105.1" r="3.6" fill="#E69F00"/>
<circle cx="668.0" cy="129.8" r="3.6" fill="#E69F00"/>
<circle cx="1252.0" cy="202.8" r="3.6" fill="#E69F00"/>
<polyline points="84.0,111.5 668.0,145.9 1252.0,218.9" fill="none" stroke="#009E73" stroke-width="2"/>
<circle cx="84.0" cy="111.5" r="3.6" fill="#009E73"/>
<circle cx="668.0" cy="145.9" r="3.6" fill="#009E73"/>
<circle cx="1252.0" cy="218.9" r="3.6" fill="#009E73"/>
<polyline points="84.0,368.3 668.0,478.9 1252.0,496.1" fill="none" stroke="#009E73" stroke-width="2" stroke-dasharray="7 5"/>
<circle cx="84.0" cy="368.3" r="3.6" fill="#009E73"/>
<circle cx="668.0" cy="478.9" r="3.6" fill="#009E73"/>
<circle cx="1252.0" cy="496.1" r="3.6" fill="#009E73"/>
<line x1="84.0" y1="106.1" x2="84.0" y2="111.5" stroke="#666" stroke-width="1.2" stroke-dasharray="4 4"/>
<rect x="91.0" y="103.0" width="60" height="18" rx="3" fill="#ffffff" fill-opacity="0.9" stroke="#bbb"/>
<text x="96.0" y="116.0" font-size="10.5" fill="#111">Δ +1.0pp</text>
<line x1="668.0" y1="111.5" x2="668.0" y2="145.9" stroke="#666" stroke-width="1.2" stroke-dasharray="4 4"/>
<rect x="675.0" y="119.7" width="60" height="18" rx="3" fill="#ffffff" fill-opacity="0.9" stroke="#bbb"/>
<text x="680.0" y="132.7" font-size="10.5" fill="#111">Δ +6.2pp</text>
<line x1="1252.0" y1="148.0" x2="1252.0" y2="218.9" stroke="#666" stroke-width="1.2" stroke-dasharray="4 4"/>
<rect x="1179.2" y="174.5" width="66" height="18" rx="3" fill="#ffffff" fill-opacity="0.9" stroke="#bbb"/>
<text x="1184.2" y="187.5" font-size="10.5" fill="#111">Δ +12.9pp</text>
</svg>