<?xml version="1.0" encoding="UTF-8"?>
<svg xmlns="http://www.w3.org/2000/svg" width="1280" height="720" viewBox="0 0 1280 720" font-family="-apple-system,'Segoe UI',sans-serif">
<rect width="1280" height="720" fill="#ffffff"/>
<text x="16" y="30" font-size="20" font-weight="600" fill="#111">10s TTFT SLO 达成率（%）</text>
<line x1="16" y1="54" x2="48" y2="54" stroke="#0072B2" stroke-width="2.5"/>
<circle cx="32" cy="54" r="4.2" fill="#0072B2"/>
<text x="56" y="59" font-size="15" fill="#111">2×DP4TP2+EP8 实例+router（token）</text>
<line x1="325.20000000000005" y1="54" x2="357.20000000000005" y2="54" stroke="#E69F00" stroke-width="2.5"/>
<circle cx="341.20000000000005" cy="54" r="4.2" fill="#E69F00"/>
<text x="365.20000000000005" y="59" font-size="15" fill="#111">DP6TP4 双机 token</text>
<line x1="511.20000000000005" y1="54" x2="543.2" y2="54" stroke="#E69F00" stroke-width="2.5" stroke-dasharray="7 5"/>
<circle cx="527.2" cy="54" r="4.2" fill="#E69F00"/>
<text x="551.2" y="59" font-size="15" fill="#111">DP6TP4 双机 request</text>
<line x1="714.8000000000001" y1="54" x2="746.8000000000001" y2="54" stroke="#009E73" stroke-width="2.5"/>
<circle cx="730.8000000000001" cy="54" r="4.2" fill="#009E73"/>
<text x="754.8000000000001" y="59" font-size="15" fill="#111">baseline2x mbt=8192</text>
<line x1="936.0000000000001" y1="54" x2="968.0000000000001" y2="54" stroke="#009E73" stroke-width="2.5" stroke-dasharray="7 5"/>
<circle cx="952.0000000000001" cy="54" r="4.2" fill="#009E73"/>
<text x="976.0000000000001" y="59" font-size="15" fill="#111">baseline2x mbt=32768</text>
<line x1="94" y1="650.0" x2="1250" y2="650.0" stroke="#eee"/>
<text x="85" y="655.0" font-size="14" fill="#555" text-anchor="end">0</text>
<line x1="94" y1="542.4" x2="1250" y2="542.4" stroke="#eee"/>
<text x="85" y="547.4" font-size="14" fill="#555" text-anchor="end">20</text>
<line x1="94" y1="434.8" x2="1250" y2="434.8" stroke="#eee"/>
<text x="85" y="439.8" font-size="14" fill="#555" text-anchor="end">40</text>
<line x1="94" y1="327.2" x2="1250" y2="327.2" stroke="#eee"/>
<text x="85" y="332.2" font-size="14" fill="#555" text-anchor="end">60</text>
<line x1="94" y1="219.6" x2="1250" y2="219.6" stroke="#eee"/>
<text x="85" y="224.6" font-size="14" fill="#555" text-anchor="end">80</text>
<line x1="94" y1="112.0" x2="1250" y2="112.0" stroke="#eee"/>
<text x="85" y="117.0" font-size="14" fill="#555" text-anchor="end">100</text>
<line x1="94" y1="112" x2="94" y2="650" stroke="#999"/>
<line x1="94" y1="650" x2="1250" y2="650" stroke="#999"/>
<line x1="94.0" y1="650" x2="94.0" y2="656" stroke="#999"/>
<text x="94.0" y="674" font-size="14" fill="#333" text-anchor="middle">1x<tspan x="94.0" dy="16">35.1K</tspan></text>
<line x1="672.0" y1="650" x2="672.0" y2="656" stroke="#999"/>
<text x="672.0" y="674" font-size="14" fill="#333" text-anchor="middle">1.5x<tspan x="672.0" dy="16">52.6K</tspan></text>
<line x1="1250.0" y1="650" x2="1250.0" y2="656" stroke="#999"/>
<text x="1250.0" y="674" font-size="14" fill="#333" text-anchor="middle">2x<tspan x="1250.0" dy="16">70.1K</tspan></text>
<text x="672" y="712" font-size="14" fill="#555" text-anchor="middle">供给速率（tok/s）</text>
<text x="16" y="381" font-size="14" fill="#555" text-anchor="middle" transform="rotate(-90 16 381)">%</text>
<polyline points="94.0,114.1 672.0,119.4 1250.0,155.1" fill="none" stroke="#0072B2" stroke-width="2.5"/>
<circle cx="94.0" cy="114.1" r="4.2" fill="#0072B2"/>
<circle cx="672.0" cy="119.4" r="4.2" fill="#0072B2"/>
<circle cx="1250.0" cy="155.1" r="4.2" fill="#0072B2"/>
<polyline points="94.0,114.1 672.0,120.4 1250.0,181.4" fill="none" stroke="#E69F00" stroke-width="2.5"/>
<circle cx="94.0" cy="114.1" r="4.2" fill="#E69F00"/>
<circle cx="672.0" cy="120.4" r="4.2" fill="#E69F00"/>
<circle cx="1250.0" cy="181.4" r="4.2" fill="#E69F00"/>
<polyline points="94.0,113.1 672.0,137.2 1250.0,208.7" fill="none" stroke="#E69F00" stroke-width="2.5" stroke-dasharray="7 5"/>
<circle cx="94.0" cy="113.1" r="4.2" fill="#E69F00"/>
<circle cx="672.0" cy="137.2" r="4.2" fill="#E69F00"/>
<circle cx="1250.0" cy="208.7" r="4.2" fill="#E69F00"/>
<polyline points="94.0,119.4 672.0,153.0 1250.0,224.4" fill="none" stroke="#009E73" stroke-width="2.5"/>
<circle cx="94.0" cy="119.4" r="4.2" fill="#009E73"/>
<circle cx="672.0" cy="153.0" r="4.2" fill="#009E73"/>
<circle cx="1250.0" cy="224.4" r="4.2" fill="#009E73"/>
<polyline points="94.0,370.5 672.0,478.7 1250.0,495.5" fill="none" stroke="#009E73" stroke-width="2.5" stroke-dasharray="7 5"/>
<circle cx="94.0" cy="370.5" r="4.2" fill="#009E73"/>
<circle cx="672.0" cy="478.7" r="4.2" fill="#009E73"/>
<circle cx="1250.0" cy="495.5" r="4.2" fill="#009E73"/>
<line x1="94.0" y1="114.1" x2="94.0" y2="119.4" stroke="#666" stroke-width="1.2" stroke-dasharray="4 4"/>
<rect x="102.0" y="111.0" width="74" height="22" rx="4" fill="#ffffff" fill-opacity="0.9" stroke="#bbb"/>
<text x="108.0" y="127.0" font-size="13" fill="#111">Δ +1.0pp</text>
<line x1="672.0" y1="119.4" x2="672.0" y2="153.0" stroke="#666" stroke-width="1.2" stroke-dasharray="4 4"/>
<rect x="680.0" y="125.2" width="74" height="22" rx="4" fill="#ffffff" fill-opacity="0.9" stroke="#bbb"/>
<text x="686.0" y="141.2" font-size="13" fill="#111">Δ +6.2pp</text>
<line x1="1250.0" y1="155.1" x2="1250.0" y2="224.4" stroke="#666" stroke-width="1.2" stroke-dasharray="4 4"/>
<rect x="1159.8" y="178.8" width="82" height="22" rx="4" fill="#ffffff" fill-opacity="0.9" stroke="#bbb"/>
<text x="1165.8" y="194.8" font-size="13" fill="#111">Δ +12.9pp</text>
</svg>